# xmcd CD database file
#
# Track frame offsets:
#	183
#	11483
#	25750
#	41300
#	58373
#	74768
#	91773
#	108485
#	123150
#	133608
#	153248
#	166753
#	184738
#	197235
#	212465
#	232758
#	247915
#	259443
#
# Disc length: 3690 seconds
#
# Revision: 1
# Processed by: cddbd v1.5.1PL0 Copyright (c) Steve Scherf et al.
# Submitted via: CDex 1.50beta10
#
DISCID=ec0e6812
DTITLE=Jimmy Rogers - Chicagos Jimmy Rogers Sing The Blues
DYEAR=1990
DGENRE=Blues
TTITLE0=Act Like You Love Me
TTITLE1=That's Allright
TTITLE2=You're Sweet
TTITLE3=Blues (Follow Me All Day Long)
TTITLE4=Sloppy Drunk
TTITLE5=Broken Hearted Blues
TTITLE6=Live At Ma Bee's
TTITLE7=Information Blues
TTITLE8=House Rocker
TTITLE9=Brown Skinned Woman
TTITLE10=Bad Luck Blues
TTITLE11=Gold Tailed Bird
TTITLE12=Slick Chick
TTITLE13=I Lost A Good Woman
TTITLE14=You're The One
TTITLE15=Pretty Baby
TTITLE16=Dorcie Belle
TTITLE17=Lonesome Blues
EXTD=YEAR: 1990
EXTT0=
EXTT1=
EXTT2=
EXTT3=
EXTT4=
EXTT5=
EXTT6=
EXTT7=
EXTT8=
EXTT9=
EXTT10=
EXTT11=
EXTT12=
EXTT13=
EXTT14=
EXTT15=
EXTT16=
EXTT17=
PLAYORDER=
